<svg id="svg" xmlns="http://www.w3.org/2000/svg" xmlns:xlink="http://www.w3.org/1999/xlink" width="400" height="254.54545454545456" viewBox="0, 0, 400,254.54545454545456"><path id="path0" d="M27.039 57.727 L 0.909 115.455 0.362 173.867 L -0.184 232.280 28.300 233.045 C 50.515 233.642,57.238 234.398,58.847 236.479 C 69.002 249.618,109.091 262.346,109.091 252.432 C 109.091 251.476,109.909 251.200,110.909 251.818 C 111.909 252.436,112.727 251.939,112.727 250.713 C 112.727 249.488,113.212 248.969,113.804 249.562 C 117.379 253.137,125.203 241.306,122.246 236.794 L 119.234 232.197 160.072 232.834 C 182.532 233.185,217.068 233.304,236.818 233.100 L 272.727 232.727 272.727 178.636 L 272.727 124.545 277.273 124.545 L 281.818 124.545 281.818 178.636 L 281.818 232.727 295.455 232.727 C 308.377 232.727,309.092 232.513,309.113 228.636 C 309.127 226.029,320.390 211.030,340.172 187.273 C 372.883 147.989,382.725 134.849,380.847 132.964 C 380.219 132.334,364.227 131.564,345.307 131.253 C 312.674 130.718,310.909 130.508,310.909 127.163 C 310.909 123.988,309.556 123.636,297.340 123.636 L 283.772 123.636 276.135 112.273 C 271.935 106.023,266.139 97.880,263.256 94.178 L 258.014 87.446 267.026 78.723 C 286.795 59.588,285.698 29.908,264.532 11.277 C 252.927 1.062,248.387 0.264,200.750 0.065 L 158.182 -0.112 158.182 61.762 C 158.182 101.800,157.540 123.636,156.364 123.636 C 153.748 123.636,153.970 194.100,156.611 202.001 C 163.899 223.807,196.966 231.706,214.331 215.788 C 224.072 206.858,225.371 200.374,225.415 160.455 L 225.455 123.636 215.455 123.636 L 205.455 123.636 205.455 108.970 L 205.455 94.304 210.432 94.879 C 214.286 95.325,217.574 98.534,224.991 109.091 L 234.571 122.727 234.104 162.727 L 233.636 202.727 228.588 211.315 C 213.092 237.677,165.794 237.384,150.909 210.835 C 144.370 199.172,142.620 124.119,148.892 124.388 C 154.717 124.637,154.736 124.692,126.211 60.827 L 99.091 0.107 76.130 0.053 L 53.169 0.000 27.039 57.727 M281.818 17.390 L 281.818 34.779 300.913 34.208 L 320.008 33.636 320.004 79.601 L 320.000 125.566 342.273 125.056 L 364.545 124.545 365.031 79.788 L 365.517 35.031 373.921 33.879 C 378.544 33.246,386.302 32.727,391.163 32.727 L 400.000 32.727 400.000 16.364 L 400.000 0.000 340.909 0.000 L 281.818 0.000 281.818 17.390 M231.220 37.555 C 241.399 46.766,232.639 60.000,216.364 60.000 L 205.455 60.000 205.455 47.273 L 205.455 34.545 216.675 34.545 C 224.564 34.545,228.883 35.439,231.220 37.555 M80.727 58.041 C 83.327 64.463,85.455 69.781,85.455 69.859 C 85.455 69.937,81.047 70.000,75.660 70.000 L 65.866 70.000 69.520 60.909 C 71.530 55.909,73.587 50.354,74.091 48.564 C 75.260 44.412,75.142 44.243,80.727 58.041 M103.078 113.800 L 107.065 123.956 76.297 123.342 C 41.953 122.656,44.313 123.891,50.241 109.704 L 52.776 103.636 75.933 103.640 L 99.091 103.644 103.078 113.800 M89.902 131.665 C 108.041 142.295,117.477 160.385,115.954 181.607 C 111.111 249.068,2.829 245.791,2.807 178.182 C 2.799 152.730,23.735 125.411,42.184 126.800 C 43.943 126.933,45.745 126.455,46.188 125.739 C 48.238 122.421,81.920 126.987,89.902 131.665 M396.364 127.540 C 396.364 130.942,386.923 144.732,380.988 150.000 C 379.861 151.000,370.712 162.045,360.657 174.545 C 350.601 187.045,338.503 201.773,333.772 207.273 C 317.925 225.695,315.775 224.380,359.669 223.119 L 397.960 222.020 398.707 226.919 C 399.119 229.614,399.578 207.477,399.728 177.727 C 399.904 142.697,399.359 123.636,398.182 123.636 C 397.182 123.636,396.364 125.393,396.364 127.540 M40.841 133.802 C 0.722 148.047,1.227 207.107,41.586 220.858 C 74.622 232.115,107.201 210.443,107.255 177.175 C 107.309 143.943,73.840 122.086,40.841 133.802 M112.727 236.386 C 106.121 241.585,97.415 243.644,90.455 241.653 C 87.205 240.724,82.500 238.353,80.000 236.386 L 75.455 232.808 96.364 232.808 L 117.273 232.808 112.727 236.386 " stroke="none" fill="#661004" fill-rule="evenodd"></path></svg>